<?xml version="1.0" encoding="UTF-8"?>
<svg id="b" data-name="Layer 2" xmlns="http://www.w3.org/2000/svg" viewBox="0 0 144.34 126.69">
  <g id="c" data-name="Layer 1">
    <g>
      <path d="M72.2,126.69l60.86-60.92c15.04-15.05,15.04-39.44,0-54.49h0c-15.05-15.05-39.44-15.05-54.49,0l-6.4,6.4-6.4-6.4C50.72-3.76,26.33-3.76,11.28,11.28h0c-15.05,15.05-15.05,39.44,0,54.49l60.92,60.92Z" fill="#ffcdd7" stroke-width="0"/>
      <path d="M93.47,32.95v52.15h-15.07v-6.11c-1.94,2.84-7.36,8.36-14.17,8.36-15.32,0-24.68-13.44-24.68-28.32,0-14.88,9.36-28.32,24.68-28.32,7.38,0,12.66,5.09,14.17,8.05v-5.8h15.06ZM78.41,59.03c0-7.59-5.72-13.53-11.74-13.53-7.1,0-11.73,5.94-11.73,13.53s4.63,13.54,11.73,13.54c6.01,0,11.74-5.95,11.74-13.54Z" fill="#00a17f" stroke-width="0"/>
    </g>
  </g>
</svg>