<?xml version="1.0" encoding="UTF-8"?>
<svg xmlns="http://www.w3.org/2000/svg" viewBox="0 0 653.46 785.31">
  <path d="M472.1,339l39-26.65c9.64-6.58,12.12-19.73,5.54-29.37h0c-6.58-9.64-19.73-12.12-29.37-5.54l-4.1,2.8-2.8-4.1c-6.58-9.64-19.73-12.12-29.37-5.54h0c-9.64,6.58-12.12,19.73-5.54,29.37l26.65,39.03Z" fill="#00a37f" />
  <path d="M493.09,290.63l-5.3,28.12-8.12-1.53.62-3.29c-1.34,1.33-4.82,3.76-8.49,3.06-8.26-1.56-11.94-9.75-10.42-17.78,1.51-8.02,7.93-14.32,16.18-12.76,3.98.75,6.31,4.03,6.82,5.78l.59-3.13,8.12,1.53ZM482.32,303.16c.77-4.09-1.71-7.88-4.95-8.49-3.83-.72-6.93,2.01-7.7,6.1s1.12,7.77,4.95,8.49c3.24.61,6.93-2.01,7.7-6.1Z" fill="#d5e19a" />
  <path d="M571.62,323.49l39-26.65c9.64-6.58,12.12-19.73,5.54-29.37h0c-6.58-9.64-19.73-12.12-29.37-5.54l-4.1,2.8-2.8-4.1c-6.58-9.64-19.73-12.12-29.37-5.54h0c-9.64,6.58-12.12,19.73-5.54,29.37l26.65,39.03Z" fill="#d5e19a" />
  <path d="M592.61,275.11l-5.3,28.12-8.12-1.53.62-3.29c-1.34,1.33-4.82,3.76-8.49,3.06-8.26-1.56-11.94-9.75-10.42-17.78,1.51-8.02,7.93-14.32,16.18-12.76,3.98.75,6.31,4.03,6.82,5.78l.59-3.13,8.12,1.53ZM581.84,287.64c.77-4.09-1.71-7.88-4.95-8.49-3.83-.72-6.93,2.01-7.7,6.1s1.12,7.77,4.95,8.49c3.24.61,6.93-2.01,7.7-6.1Z" fill="#00a37f" />
  <path d="M554.84,412.44l39-26.65c9.64-6.58,12.12-19.73,5.54-29.37h0c-6.58-9.64-19.73-12.12-29.37-5.54l-4.1,2.8-2.8-4.1c-6.58-9.64-19.73-12.12-29.37-5.54h0c-9.64,6.58-12.12,19.73-5.54,29.37l26.65,39.03Z" fill="#ffcfd9" />
  <path d="M575.83,364.07l-5.3,28.12-8.12-1.53.62-3.29c-1.34,1.33-4.82,3.76-8.49,3.06-8.26-1.56-11.94-9.75-10.42-17.78,1.51-8.02,7.93-14.32,16.18-12.76,3.98.75,6.31,4.03,6.82,5.78l.59-3.13,8.12,1.53ZM565.06,376.6c.77-4.09-1.71-7.88-4.95-8.49-3.83-.72-6.93,2.01-7.7,6.1s1.12,7.77,4.95,8.49c3.24.61,6.93-2.01,7.7-6.1Z" fill="#ff979c" />
  <path d="M268.11,392.86l39-26.65c9.64-6.58,12.12-19.73,5.54-29.37h0c-6.58-9.64-19.73-12.12-29.37-5.54l-4.1,2.8-2.8-4.1c-6.58-9.64-19.73-12.12-29.37-5.54h0c-9.64,6.58-12.12,19.73-5.54,29.37l26.65,39.03Z" fill="#00a37f" />
  <path d="M289.1,344.48l-5.3,28.12-8.12-1.53.62-3.29c-1.34,1.33-4.82,3.76-8.49,3.06-8.26-1.56-11.94-9.75-10.42-17.78,1.51-8.02,7.93-14.32,16.18-12.76,3.98.75,6.31,4.03,6.82,5.78l.59-3.13,8.12,1.53ZM278.33,357.01c.77-4.09-1.71-7.88-4.95-8.49-3.83-.72-6.93,2.01-7.7,6.1s1.12,7.77,4.95,8.49c3.24.61,6.93-2.01,7.7-6.1Z" fill="#d5e19a" />
  <path d="M367.62,377.34l39-26.65c9.64-6.58,12.12-19.73,5.54-29.37h0c-6.58-9.64-19.73-12.12-29.37-5.54l-4.1,2.8-2.8-4.1c-6.58-9.64-19.73-12.12-29.37-5.54h0c-9.64,6.58-12.12,19.73-5.54,29.37l26.65,39.03Z" fill="#d5e19a" />
  <path d="M388.62,328.97l-5.3,28.12-8.12-1.53.62-3.29c-1.34,1.33-4.82,3.76-8.49,3.06-8.26-1.56-11.94-9.75-10.42-17.78,1.51-8.02,7.93-14.32,16.18-12.76,3.98.75,6.31,4.03,6.82,5.78l.59-3.13,8.12,1.53ZM377.85,341.5c.77-4.09-1.71-7.88-4.95-8.49-3.83-.72-6.93,2.01-7.7,6.1s1.12,7.77,4.95,8.49c3.24.61,6.93-2.01,7.7-6.1Z" fill="#00a37f" />
  <path d="M454.18,428.7l39-26.65c9.64-6.58,12.12-19.73,5.54-29.37h0c-6.58-9.64-19.73-12.12-29.37-5.54l-4.1,2.8-2.8-4.1c-6.58-9.64-19.73-12.12-29.37-5.54h0c-9.64,6.58-12.12,19.73-5.54,29.37l26.65,39.03Z" fill="#ff979c" />
  <path d="M475.17,380.33l-5.3,28.12-8.12-1.53.62-3.29c-1.34,1.33-4.82,3.76-8.49,3.06-8.26-1.56-11.94-9.75-10.42-17.78,1.51-8.02,7.93-14.32,16.18-12.76,3.98.75,6.31,4.03,6.82,5.78l.59-3.13,8.12,1.53ZM464.4,392.86c.77-4.09-1.71-7.88-4.95-8.49-3.83-.72-6.93,2.01-7.7,6.1-.77,4.09,1.12,7.77,4.95,8.49,3.24.61,6.93-2.01,7.7-6.1Z" fill="#ffcfd9" />
  <path d="M283.81,304.25l39-26.65c9.64-6.58,12.12-19.73,5.54-29.37h0c-6.58-9.64-19.73-12.12-29.37-5.54l-4.1,2.8-2.8-4.1c-6.58-9.64-19.73-12.12-29.37-5.54h0c-9.64,6.58-12.12,19.73-5.54,29.37l26.65,39.03Z" fill="#ff979c" />
  <path d="M304.8,255.88l-5.3,28.12-8.12-1.53.62-3.29c-1.34,1.33-4.82,3.76-8.49,3.06-8.26-1.56-11.94-9.75-10.42-17.78,1.51-8.02,7.93-14.32,16.18-12.76,3.98.75,6.31,4.03,6.82,5.78l.59-3.13,8.12,1.53ZM294.03,268.41c.77-4.09-1.71-7.88-4.95-8.49-3.83-.72-6.93,2.01-7.7,6.1-.77,4.09,1.12,7.77,4.95,8.49,3.24.61,6.93-2.01,7.7-6.1Z" fill="#ffcfd9" />
  <path d="M505.72,160.7l39-26.65c9.64-6.58,12.12-19.73,5.54-29.37h0c-6.58-9.64-19.73-12.12-29.37-5.54l-4.1,2.8-2.8-4.1c-6.58-9.64-19.73-12.12-29.37-5.54h0c-9.64,6.58-12.12,19.73-5.54,29.37l26.65,39.03Z" fill="#00a37f" />
  <path d="M526.72,112.32l-5.3,28.12-8.12-1.53.62-3.29c-1.34,1.33-4.82,3.76-8.49,3.06-8.26-1.56-11.94-9.75-10.42-17.78,1.51-8.02,7.93-14.32,16.18-12.76,3.98.75,6.31,4.03,6.82,5.78l.59-3.13,8.12,1.53ZM515.95,124.85c.77-4.09-1.71-7.88-4.95-8.49-3.83-.72-6.93,2.01-7.7,6.1s1.12,7.77,4.95,8.49c3.24.61,6.93-2.01,7.7-6.1Z" fill="#d5e19a" />
  <path d="M605.24,145.18l39-26.65c9.64-6.58,12.12-19.73,5.54-29.37h0c-6.58-9.64-19.73-12.12-29.37-5.54l-4.1,2.8-2.8-4.1c-6.58-9.64-19.73-12.12-29.37-5.54h0c-9.64,6.58-12.12,19.73-5.54,29.37l26.65,39.03Z" fill="#d5e19a" />
  <path d="M626.23,96.81l-5.3,28.12-8.12-1.53.62-3.29c-1.34,1.33-4.82,3.76-8.49,3.06-8.26-1.56-11.94-9.75-10.42-17.78,1.51-8.02,7.93-14.32,16.18-12.76,3.98.75,6.31,4.03,6.82,5.78l.59-3.13,8.12,1.53ZM615.46,109.34c.77-4.09-1.71-7.88-4.95-8.49-3.83-.72-6.93,2.01-7.7,6.1s1.12,7.77,4.95,8.49c3.24.61,6.93-2.01,7.7-6.1Z" fill="#00a37f" />
  <path d="M588.47,234.14l39-26.65c9.64-6.58,12.12-19.73,5.54-29.37h0c-6.58-9.64-19.73-12.12-29.37-5.54l-4.1,2.8-2.8-4.1c-6.58-9.64-19.73-12.12-29.37-5.54h0c-9.64,6.58-12.12,19.73-5.54,29.37l26.65,39.03Z" fill="#ffcfd9" />
  <path d="M609.46,185.77l-5.3,28.12-8.12-1.53.62-3.29c-1.34,1.33-4.82,3.76-8.49,3.06-8.26-1.56-11.94-9.75-10.42-17.78,1.51-8.02,7.93-14.32,16.18-12.76,3.98.75,6.31,4.03,6.82,5.78l.59-3.13,8.12,1.53ZM598.69,198.29c.77-4.09-1.71-7.88-4.95-8.49-3.83-.72-6.93,2.01-7.7,6.1-.77,4.09,1.12,7.77,4.95,8.49,3.24.61,6.93-2.01,7.7-6.1Z" fill="#ff979c" />
  <path d="M401.25,199.04l39-26.65c9.64-6.58,12.12-19.73,5.54-29.37h0c-6.58-9.64-19.73-12.12-29.37-5.54l-4.1,2.8-2.8-4.1c-6.58-9.64-19.73-12.12-29.37-5.54h0c-9.64,6.58-12.12,19.73-5.54,29.37l26.65,39.03Z" fill="#d5e19a" />
  <path d="M422.24,150.66l-5.3,28.12-8.12-1.53.62-3.29c-1.34,1.33-4.82,3.76-8.49,3.06-8.26-1.56-11.94-9.75-10.42-17.78,1.51-8.02,7.93-14.32,16.18-12.76,3.98.75,6.31,4.03,6.82,5.78l.59-3.13,8.12,1.53ZM411.47,163.19c.77-4.09-1.71-7.88-4.95-8.49-3.83-.72-6.93,2.01-7.7,6.1s1.12,7.77,4.95,8.49c3.24.61,6.93-2.01,7.7-6.1Z" fill="#00a37f" />
  <path d="M384.47,287.99l39-26.65c9.64-6.58,12.12-19.73,5.54-29.37h0c-6.58-9.64-19.73-12.12-29.37-5.54l-4.1,2.8-2.8-4.1c-6.58-9.64-19.73-12.12-29.37-5.54h0c-9.64,6.58-12.12,19.73-5.54,29.37l26.65,39.03Z" fill="#ffcfd9" />
  <path d="M405.46,239.62l-5.3,28.12-8.12-1.53.62-3.29c-1.34,1.33-4.82,3.76-8.49,3.06-8.26-1.56-11.94-9.75-10.42-17.78,1.51-8.02,7.93-14.32,16.18-12.76,3.98.75,6.31,4.03,6.82,5.78l.59-3.13,8.12,1.53ZM394.69,252.15c.77-4.09-1.71-7.88-4.95-8.49-3.83-.72-6.93,2.01-7.7,6.1-.77,4.09,1.12,7.77,4.95,8.49,3.24.61,6.93-2.01,7.7-6.1Z" fill="#ff979c" />
  <path d="M487.8,250.4l39-26.65c9.64-6.58,12.12-19.73,5.54-29.37h0c-6.58-9.64-19.73-12.12-29.37-5.54l-4.1,2.8-2.8-4.1c-6.58-9.64-19.73-12.12-29.37-5.54h0c-9.64,6.58-12.12,19.73-5.54,29.37l26.65,39.03Z" fill="#ff979c" />
  <path d="M508.79,202.02l-5.3,28.12-8.12-1.53.62-3.29c-1.34,1.33-4.82,3.76-8.49,3.06-8.26-1.56-11.94-9.75-10.42-17.78,1.51-8.02,7.93-14.32,16.18-12.76,3.98.75,6.31,4.03,6.82,5.78l.59-3.13,8.12,1.53ZM498.02,214.55c.77-4.09-1.71-7.88-4.95-8.49-3.83-.72-6.93,2.01-7.7,6.1s1.12,7.77,4.95,8.49c3.24.61,6.93-2.01,7.7-6.1Z" fill="#ffcfd9" />
  <path d="M521.43,72.09l39-26.65c9.64-6.58,12.12-19.73,5.54-29.37h0c-6.58-9.64-19.73-12.12-29.37-5.54l-4.1,2.8-2.8-4.1c-6.58-9.64-19.73-12.12-29.37-5.54h0c-9.64,6.58-12.12,19.73-5.54,29.37l26.65,39.03Z" fill="#ff979c" />
  <path d="M542.42,23.72l-5.3,28.12-8.12-1.53.62-3.29c-1.34,1.33-4.82,3.76-8.49,3.06-8.26-1.56-11.94-9.75-10.42-17.78,1.51-8.02,7.93-14.32,16.18-12.76,3.98.75,6.31,4.03,6.82,5.78l.59-3.13,8.12,1.53ZM531.65,36.25c.77-4.09-1.71-7.88-4.95-8.49-3.83-.72-6.93,2.01-7.7,6.1s1.12,7.77,4.95,8.49c3.24.61,6.93-2.01,7.7-6.1Z" fill="#ffcfd9" />
  <path d="M404.85,695.61l39-26.65c9.64-6.58,12.12-19.73,5.54-29.37h0c-6.58-9.64-19.73-12.12-29.37-5.54l-4.1,2.8-2.8-4.1c-6.58-9.64-19.73-12.12-29.37-5.54h0c-9.64,6.58-12.12,19.73-5.54,29.37l26.65,39.03Z" fill="#00a37f" />
  <path d="M425.85,647.24l-5.3,28.12-8.12-1.53.62-3.29c-1.34,1.33-4.82,3.76-8.49,3.06-8.26-1.56-11.94-9.75-10.42-17.78,1.51-8.02,7.93-14.32,16.18-12.76,3.98.75,6.31,4.03,6.82,5.78l.59-3.13,8.12,1.53ZM415.08,659.77c.77-4.09-1.71-7.88-4.95-8.49-3.83-.72-6.93,2.01-7.7,6.1s1.12,7.77,4.95,8.49c3.24.61,6.93-2.01,7.7-6.1Z" fill="#d5e19a" />
  <path d="M504.37,680.1l39-26.65c9.64-6.58,12.12-19.73,5.54-29.37h0c-6.58-9.64-19.73-12.12-29.37-5.54l-4.1,2.8-2.8-4.1c-6.58-9.64-19.73-12.12-29.37-5.54h0c-9.64,6.58-12.12,19.73-5.54,29.37l26.65,39.03Z" fill="#d5e19a" />
  <path d="M525.36,631.72l-5.3,28.12-8.12-1.53.62-3.29c-1.34,1.33-4.82,3.76-8.49,3.06-8.26-1.56-11.94-9.75-10.42-17.78,1.51-8.02,7.93-14.32,16.18-12.76,3.98.75,6.31,4.03,6.82,5.78l.59-3.13,8.12,1.53ZM514.59,644.25c.77-4.09-1.71-7.88-4.95-8.49-3.83-.72-6.93,2.01-7.7,6.1s1.12,7.77,4.95,8.49c3.24.61,6.93-2.01,7.7-6.1Z" fill="#00a37f" />
  <path d="M487.6,769.05l39-26.65c9.64-6.58,12.12-19.73,5.54-29.37h0c-6.58-9.64-19.73-12.12-29.37-5.54l-4.1,2.8-2.8-4.1c-6.58-9.64-19.73-12.12-29.37-5.54h0c-9.64,6.58-12.12,19.73-5.54,29.37l26.65,39.03Z" fill="#ffcfd9" />
  <path d="M508.59,720.68l-5.3,28.12-8.12-1.53.62-3.29c-1.34,1.33-4.82,3.76-8.49,3.06-8.26-1.56-11.94-9.75-10.42-17.78,1.51-8.02,7.93-14.32,16.18-12.76,3.98.75,6.31,4.03,6.82,5.78l.59-3.13,8.12,1.53ZM497.82,733.21c.77-4.09-1.71-7.88-4.95-8.49-3.83-.72-6.93,2.01-7.7,6.1s1.12,7.77,4.95,8.49c3.24.61,6.93-2.01,7.7-6.1Z" fill="#ff979c" />
  <path d="M200.86,749.47l39-26.65c9.64-6.58,12.12-19.73,5.54-29.37h0c-6.58-9.64-19.73-12.12-29.37-5.54l-4.1,2.8-2.8-4.1c-6.58-9.64-19.73-12.12-29.37-5.54h0c-9.64,6.58-12.12,19.73-5.54,29.37l26.65,39.03Z" fill="#00a37f" />
  <path d="M221.85,701.1l-5.3,28.12-8.12-1.53.62-3.29c-1.34,1.33-4.82,3.76-8.49,3.06-8.26-1.56-11.94-9.75-10.42-17.78,1.51-8.02,7.93-14.32,16.18-12.76,3.98.75,6.31,4.03,6.82,5.78l.59-3.13,8.12,1.53ZM211.08,713.62c.77-4.09-1.71-7.88-4.95-8.49-3.83-.72-6.93,2.01-7.7,6.1s1.12,7.77,4.95,8.49c3.24.61,6.93-2.01,7.7-6.1Z" fill="#d5e19a" />
  <path d="M300.38,733.95l39-26.65c9.64-6.58,12.12-19.73,5.54-29.37h0c-6.58-9.64-19.73-12.12-29.37-5.54l-4.1,2.8-2.8-4.1c-6.58-9.64-19.73-12.12-29.37-5.54h0c-9.64,6.58-12.12,19.73-5.54,29.37l26.65,39.03Z" fill="#d5e19a" />
  <path d="M321.37,685.58l-5.3,28.12-8.12-1.53.62-3.29c-1.34,1.33-4.82,3.76-8.49,3.06-8.26-1.56-11.94-9.75-10.42-17.78,1.51-8.02,7.93-14.32,16.18-12.76,3.98.75,6.31,4.03,6.82,5.78l.59-3.13,8.12,1.53ZM310.6,698.11c.77-4.09-1.71-7.88-4.95-8.49-3.83-.72-6.93,2.01-7.7,6.1s1.12,7.77,4.95,8.49c3.24.61,6.93-2.01,7.7-6.1Z" fill="#00a37f" />
  <path d="M386.93,785.31l39-26.65c9.64-6.58,12.12-19.73,5.54-29.37h0c-6.58-9.64-19.73-12.12-29.37-5.54l-4.1,2.8-2.8-4.1c-6.58-9.64-19.73-12.12-29.37-5.54h0c-9.64,6.58-12.12,19.73-5.54,29.37l26.65,39.03Z" fill="#ff979c" />
  <path d="M407.92,736.94l-5.3,28.12-8.12-1.53.62-3.29c-1.34,1.33-4.82,3.76-8.49,3.06-8.26-1.56-11.94-9.75-10.42-17.78,1.51-8.02,7.93-14.32,16.18-12.76,3.98.75,6.31,4.03,6.82,5.78l.59-3.13,8.12,1.53ZM397.15,749.47c.77-4.09-1.71-7.88-4.95-8.49-3.83-.72-6.93,2.01-7.7,6.1-.77,4.09,1.12,7.77,4.95,8.49,3.24.61,6.93-2.01,7.7-6.1Z" fill="#ffcfd9" />
  <path d="M130.01,609.5l39-26.65c9.64-6.58,12.12-19.73,5.54-29.37h0c-6.58-9.64-19.73-12.12-29.37-5.54l-4.1,2.8-2.8-4.1c-6.58-9.64-19.73-12.12-29.37-5.54h0c-9.64,6.58-12.12,19.73-5.54,29.37l26.65,39.03Z" fill="#d5e19a" />
  <path d="M151,561.13l-5.3,28.12-8.12-1.53.62-3.29c-1.34,1.33-4.82,3.76-8.49,3.06-8.26-1.56-11.94-9.75-10.42-17.78,1.51-8.02,7.93-14.32,16.18-12.76,3.98.75,6.31,4.03,6.82,5.78l.59-3.13,8.12,1.53ZM140.23,573.66c.77-4.09-1.71-7.88-4.95-8.49-3.83-.72-6.93,2.01-7.7,6.1-.77,4.09,1.12,7.77,4.95,8.49,3.24.61,6.93-2.01,7.7-6.1Z" fill="#00a37f" />
  <path d="M113.23,698.46l39-26.65c9.64-6.58,12.12-19.73,5.54-29.37h0c-6.58-9.64-19.73-12.12-29.37-5.54l-4.1,2.8-2.8-4.1c-6.58-9.64-19.73-12.12-29.37-5.54h0c-9.64,6.58-12.12,19.73-5.54,29.37l26.65,39.03Z" fill="#ffcfd9" />
  <path d="M134.22,650.09l-5.3,28.12-8.12-1.53.62-3.29c-1.34,1.33-4.82,3.76-8.49,3.06-8.26-1.56-11.94-9.75-10.42-17.78,1.51-8.02,7.93-14.32,16.18-12.76,3.98.75,6.31,4.03,6.82,5.78l.59-3.13,8.12,1.53ZM123.45,662.61c.77-4.09-1.71-7.88-4.95-8.49-3.83-.72-6.93,2.01-7.7,6.1s1.12,7.77,4.95,8.49c3.24.61,6.93-2.01,7.7-6.1Z" fill="#ff979c" />
  <path d="M216.56,660.86l39-26.65c9.64-6.58,12.12-19.73,5.54-29.37h0c-6.58-9.64-19.73-12.12-29.37-5.54l-4.1,2.8-2.8-4.1c-6.58-9.64-19.73-12.12-29.37-5.54h0c-9.64,6.58-12.12,19.73-5.54,29.37l26.65,39.03Z" fill="#ff979c" />
  <path d="M237.55,612.49l-5.3,28.12-8.12-1.53.62-3.29c-1.34,1.33-4.82,3.76-8.49,3.06-8.26-1.56-11.94-9.75-10.42-17.78,1.51-8.02,7.93-14.32,16.18-12.76,3.98.75,6.31,4.03,6.82,5.78l.59-3.13,8.12,1.53ZM226.78,625.02c.77-4.09-1.71-7.88-4.95-8.49-3.83-.72-6.93,2.01-7.7,6.1s1.12,7.77,4.95,8.49c3.24.61,6.93-2.01,7.7-6.1Z" fill="#ffcfd9" />
  <path d="M438.48,517.31l39-26.65c9.64-6.58,12.12-19.73,5.54-29.37h0c-6.58-9.64-19.73-12.12-29.37-5.54l-4.1,2.8-2.8-4.1c-6.58-9.64-19.73-12.12-29.37-5.54h0c-9.64,6.58-12.12,19.73-5.54,29.37l26.65,39.03Z" fill="#00a37f" />
  <path d="M459.47,468.93l-5.3,28.12-8.12-1.53.62-3.29c-1.34,1.33-4.82,3.76-8.49,3.06-8.26-1.56-11.94-9.75-10.42-17.78,1.51-8.02,7.93-14.32,16.18-12.76,3.98.75,6.31,4.03,6.82,5.78l.59-3.13,8.12,1.53ZM448.7,481.46c.77-4.09-1.71-7.88-4.95-8.49-3.83-.72-6.93,2.01-7.7,6.1-.77,4.09,1.12,7.77,4.95,8.49,3.24.61,6.93-2.01,7.7-6.1Z" fill="#d5e19a" />
  <path d="M537.99,501.79l39-26.65c9.64-6.58,12.12-19.73,5.54-29.37h0c-6.58-9.64-19.73-12.12-29.37-5.54l-4.1,2.8-2.8-4.1c-6.58-9.64-19.73-12.12-29.37-5.54h0c-9.64,6.58-12.12,19.73-5.54,29.37l26.65,39.03Z" fill="#d5e19a" />
  <path d="M558.99,453.42l-5.3,28.12-8.12-1.53.62-3.29c-1.34,1.33-4.82,3.76-8.49,3.06-8.26-1.56-11.94-9.75-10.42-17.78,1.51-8.02,7.93-14.32,16.18-12.76,3.98.75,6.31,4.03,6.82,5.78l.59-3.13,8.12,1.53ZM548.22,465.95c.77-4.09-1.71-7.88-4.95-8.49-3.83-.72-6.93,2.01-7.7,6.1-.77,4.09,1.12,7.77,4.95,8.49,3.24.61,6.93-2.01,7.7-6.1Z" fill="#00a37f" />
  <path d="M521.22,590.75l39-26.65c9.64-6.58,12.12-19.73,5.54-29.37h0c-6.58-9.64-19.73-12.12-29.37-5.54l-4.1,2.8-2.8-4.1c-6.58-9.64-19.73-12.12-29.37-5.54h0c-9.64,6.58-12.12,19.73-5.54,29.37l26.65,39.03Z" fill="#ffcfd9" />
  <path d="M542.21,542.38l-5.3,28.12-8.12-1.53.62-3.29c-1.34,1.33-4.82,3.76-8.49,3.06-8.26-1.56-11.94-9.75-10.42-17.78,1.51-8.02,7.93-14.32,16.18-12.76,3.98.75,6.31,4.03,6.82,5.78l.59-3.13,8.12,1.53ZM531.44,554.9c.77-4.09-1.71-7.88-4.95-8.49-3.83-.72-6.93,2.01-7.7,6.1s1.12,7.77,4.95,8.49c3.24.61,6.93-2.01,7.7-6.1Z" fill="#ff979c" />
  <path d="M234.48,571.16l39-26.65c9.64-6.58,12.12-19.73,5.54-29.37h0c-6.58-9.64-19.73-12.12-29.37-5.54l-4.1,2.8-2.8-4.1c-6.58-9.64-19.73-12.12-29.37-5.54h0c-9.64,6.58-12.12,19.73-5.54,29.37l26.65,39.03Z" fill="#00a37f" />
  <path d="M255.47,522.79l-5.3,28.12-8.12-1.53.62-3.29c-1.34,1.33-4.82,3.76-8.49,3.06-8.26-1.56-11.94-9.75-10.42-17.78,1.51-8.02,7.93-14.32,16.18-12.76,3.98.75,6.31,4.03,6.82,5.78l.59-3.13,8.12,1.53ZM244.7,535.32c.77-4.09-1.71-7.88-4.95-8.49-3.83-.72-6.93,2.01-7.7,6.1s1.12,7.77,4.95,8.49c3.24.61,6.93-2.01,7.7-6.1Z" fill="#d5e19a" />
  <path d="M334,555.65l39-26.65c9.64-6.58,12.12-19.73,5.54-29.37h0c-6.58-9.64-19.73-12.12-29.37-5.54l-4.1,2.8-2.8-4.1c-6.58-9.64-19.73-12.12-29.37-5.54h0c-9.64,6.58-12.12,19.73-5.54,29.37l26.65,39.03Z" fill="#d5e19a" />
  <path d="M354.99,507.27l-5.3,28.12-8.12-1.53.62-3.29c-1.34,1.33-4.82,3.76-8.49,3.06-8.26-1.56-11.94-9.75-10.42-17.78,1.51-8.02,7.93-14.32,16.18-12.76,3.98.75,6.31,4.03,6.82,5.78l.59-3.13,8.12,1.53ZM344.22,519.8c.77-4.09-1.71-7.88-4.95-8.49-3.83-.72-6.93,2.01-7.7,6.1-.77,4.09,1.12,7.77,4.95,8.49,3.24.61,6.93-2.01,7.7-6.1Z" fill="#00a37f" />
  <path d="M317.22,644.6l39-26.65c9.64-6.58,12.12-19.73,5.54-29.37h0c-6.58-9.64-19.73-12.12-29.37-5.54l-4.1,2.8-2.8-4.1c-6.58-9.64-19.73-12.12-29.37-5.54h0c-9.64,6.58-12.12,19.73-5.54,29.37l26.65,39.03Z" fill="#ffcfd9" />
  <path d="M338.22,596.23l-5.3,28.12-8.12-1.53.62-3.29c-1.34,1.33-4.82,3.76-8.49,3.06-8.26-1.56-11.94-9.75-10.42-17.78,1.51-8.02,7.93-14.32,16.18-12.76,3.98.75,6.31,4.03,6.82,5.78l.59-3.13,8.12,1.53ZM327.45,608.76c.77-4.09-1.71-7.88-4.95-8.49-3.83-.72-6.93,2.01-7.7,6.1-.77,4.09,1.12,7.77,4.95,8.49,3.24.61,6.93-2.01,7.7-6.1Z" fill="#ff979c" />
  <path d="M420.56,607.01l39-26.65c9.64-6.58,12.12-19.73,5.54-29.37h0c-6.58-9.64-19.73-12.12-29.37-5.54l-4.1,2.8-2.8-4.1c-6.58-9.64-19.73-12.12-29.37-5.54h0c-9.64,6.58-12.12,19.73-5.54,29.37l26.65,39.03Z" fill="#ff979c" />
  <path d="M441.55,558.63l-5.3,28.12-8.12-1.53.62-3.29c-1.34,1.33-4.82,3.76-8.49,3.06-8.26-1.56-11.94-9.75-10.42-17.78,1.51-8.02,7.93-14.32,16.18-12.76,3.98.75,6.31,4.03,6.82,5.78l.59-3.13,8.12,1.53ZM430.78,571.16c.77-4.09-1.71-7.88-4.95-8.49-3.83-.72-6.93,2.01-7.7,6.1s1.12,7.77,4.95,8.49c3.24.61,6.93-2.01,7.7-6.1Z" fill="#ffcfd9" />
  <path d="M163.63,431.2l39-26.65c9.64-6.58,12.12-19.73,5.54-29.37h0c-6.58-9.64-19.73-12.12-29.37-5.54l-4.1,2.8-2.8-4.1c-6.58-9.64-19.73-12.12-29.37-5.54h0c-9.64,6.58-12.12,19.73-5.54,29.37l26.65,39.03Z" fill="#d5e19a" />
  <path d="M184.62,382.82l-5.3,28.12-8.12-1.53.62-3.29c-1.34,1.33-4.82,3.76-8.49,3.06-8.26-1.56-11.94-9.75-10.42-17.78,1.51-8.02,7.93-14.32,16.18-12.76,3.98.75,6.31,4.03,6.82,5.78l.59-3.13,8.12,1.53ZM173.85,395.35c.77-4.09-1.71-7.88-4.95-8.49-3.83-.72-6.93,2.01-7.7,6.1s1.12,7.77,4.95,8.49c3.24.61,6.93-2.01,7.7-6.1Z" fill="#00a37f" />
  <path d="M146.85,520.15l39-26.65c9.64-6.58,12.12-19.73,5.54-29.37h0c-6.58-9.64-19.73-12.12-29.37-5.54l-4.1,2.8-2.8-4.1c-6.58-9.64-19.73-12.12-29.37-5.54h0c-9.64,6.58-12.12,19.73-5.54,29.37l26.65,39.03Z" fill="#ffcfd9" />
  <path d="M167.85,471.78l-5.3,28.12-8.12-1.53.62-3.29c-1.34,1.33-4.82,3.76-8.49,3.06-8.26-1.56-11.94-9.75-10.42-17.78,1.51-8.02,7.93-14.32,16.18-12.76,3.98.75,6.31,4.03,6.82,5.78l.59-3.13,8.12,1.53ZM157.08,484.31c.77-4.09-1.71-7.88-4.95-8.49-3.83-.72-6.93,2.01-7.7,6.1-.77,4.09,1.12,7.77,4.95,8.49,3.24.61,6.93-2.01,7.7-6.1Z" fill="#ff979c" />
  <path d="M250.18,482.56l39-26.65c9.64-6.58,12.12-19.73,5.54-29.37h0c-6.58-9.64-19.73-12.12-29.37-5.54l-4.1,2.8-2.8-4.1c-6.58-9.64-19.73-12.12-29.37-5.54h0c-9.64,6.58-12.12,19.73-5.54,29.37l26.65,39.03Z" fill="#ff979c" />
  <path d="M271.18,434.18l-5.3,28.12-8.12-1.53.62-3.29c-1.34,1.33-4.82,3.76-8.49,3.06-8.26-1.56-11.94-9.75-10.42-17.78,1.51-8.02,7.93-14.32,16.18-12.76,3.98.75,6.31,4.03,6.82,5.78l.59-3.13,8.12,1.53ZM260.41,446.71c.77-4.09-1.71-7.88-4.95-8.49-3.83-.72-6.93,2.01-7.7,6.1s1.12,7.77,4.95,8.49c3.24.61,6.93-2.01,7.7-6.1Z" fill="#ffcfd9" />
  <path d="M30.33,624.92l39-26.65c9.64-6.58,12.12-19.73,5.54-29.37h0c-6.58-9.64-19.73-12.12-29.37-5.54l-4.1,2.8-2.8-4.1c-6.58-9.64-19.73-12.12-29.37-5.54h0c-9.64,6.58-12.12,19.73-5.54,29.37l26.65,39.03Z" fill="#00a37f" />
  <path d="M51.32,576.55l-5.3,28.12-8.12-1.53.62-3.29c-1.34,1.33-4.82,3.76-8.49,3.06-8.26-1.56-11.94-9.75-10.42-17.78,1.51-8.02,7.93-14.32,16.18-12.76,3.98.75,6.31,4.03,6.82,5.78l.59-3.13,8.12,1.53ZM40.55,589.08c.77-4.09-1.71-7.88-4.95-8.49-3.83-.72-6.93,2.01-7.7,6.1s1.12,7.77,4.95,8.49c3.24.61,6.93-2.01,7.7-6.1Z" fill="#d5e19a" />
  <path d="M46.03,536.32l39-26.65c9.64-6.58,12.12-19.73,5.54-29.37h0c-6.58-9.64-19.73-12.12-29.37-5.54l-4.1,2.8-2.8-4.1c-6.58-9.64-19.73-12.12-29.37-5.54h0c-9.64,6.58-12.12,19.73-5.54,29.37l26.65,39.03Z" fill="#ff979c" />
  <path d="M67.03,487.94l-5.3,28.12-8.12-1.53.62-3.29c-1.34,1.33-4.82,3.76-8.49,3.06-8.26-1.56-11.94-9.75-10.42-17.78,1.51-8.02,7.93-14.32,16.18-12.76,3.98.75,6.31,4.03,6.82,5.78l.59-3.13,8.12,1.53ZM56.26,500.47c.77-4.09-1.71-7.88-4.95-8.49-3.83-.72-6.93,2.01-7.7,6.1-.77,4.09,1.12,7.77,4.95,8.49,3.24.61,6.93-2.01,7.7-6.1Z" fill="#ffcfd9" />
  <path d="M268.11,392.86l39-26.65c9.64-6.58,12.12-19.73,5.54-29.37h0c-6.58-9.64-19.73-12.12-29.37-5.54l-4.1,2.8-2.8-4.1c-6.58-9.64-19.73-12.12-29.37-5.54h0c-9.64,6.58-12.12,19.73-5.54,29.37l26.65,39.03Z" fill="#00a37f" />
  <path d="M289.1,344.48l-5.3,28.12-8.12-1.53.62-3.29c-1.34,1.33-4.82,3.76-8.49,3.06-8.26-1.56-11.94-9.75-10.42-17.78,1.51-8.02,7.93-14.32,16.18-12.76,3.98.75,6.31,4.03,6.82,5.78l.59-3.13,8.12,1.53ZM278.33,357.01c.77-4.09-1.71-7.88-4.95-8.49-3.83-.72-6.93,2.01-7.7,6.1s1.12,7.77,4.95,8.49c3.24.61,6.93-2.01,7.7-6.1Z" fill="#d5e19a" />
  <path d="M350.85,466.3l39-26.65c9.64-6.58,12.12-19.73,5.54-29.37h0c-6.58-9.64-19.73-12.12-29.37-5.54l-4.1,2.8-2.8-4.1c-6.58-9.64-19.73-12.12-29.37-5.54h0c-9.64,6.58-12.12,19.73-5.54,29.37l26.65,39.03Z" fill="#ffcfd9" />
  <path d="M371.84,417.93l-5.3,28.12-8.12-1.53.62-3.29c-1.34,1.33-4.82,3.76-8.49,3.06-8.26-1.56-11.94-9.75-10.42-17.78,1.51-8.02,7.93-14.32,16.18-12.76,3.98.75,6.31,4.03,6.82,5.78l.59-3.13,8.12,1.53ZM361.07,430.45c.77-4.09-1.71-7.88-4.95-8.49-3.83-.72-6.93,2.01-7.7,6.1-.77,4.09,1.12,7.77,4.95,8.49,3.24.61,6.93-2.01,7.7-6.1Z" fill="#ff979c" />
  <path d="M454.18,428.7l39-26.65c9.64-6.58,12.12-19.73,5.54-29.37h0c-6.58-9.64-19.73-12.12-29.37-5.54l-4.1,2.8-2.8-4.1c-6.58-9.64-19.73-12.12-29.37-5.54h0c-9.64,6.58-12.12,19.73-5.54,29.37l26.65,39.03Z" fill="#ff979c" />
  <path d="M475.17,380.33l-5.3,28.12-8.12-1.53.62-3.29c-1.34,1.33-4.82,3.76-8.49,3.06-8.26-1.56-11.94-9.75-10.42-17.78,1.51-8.02,7.93-14.32,16.18-12.76,3.98.75,6.31,4.03,6.82,5.78l.59-3.13,8.12,1.53ZM464.4,392.86c.77-4.09-1.71-7.88-4.95-8.49-3.83-.72-6.93,2.01-7.7,6.1-.77,4.09,1.12,7.77,4.95,8.49,3.24.61,6.93-2.01,7.7-6.1Z" fill="#ffcfd9" />
</svg>