<?xml version="1.0" encoding="UTF-8"?>
<svg xmlns="http://www.w3.org/2000/svg" viewBox="0 0 450 450">
  <path fill="#ff959a" d="M225.09,418.11l185.51-185.72c45.86-45.87,45.86-120.24,0-166.11h0c-45.86-45.87-120.22-45.87-166.09,0l-19.52,19.52-19.51-19.52c-45.86-45.87-120.22-45.87-166.09,0h0c-45.86,45.87-45.86,120.24,0,166.11l185.7,185.72Z"/>
  <path fill="#000000" d="M225.05,109.63c-63.85,0-115.35,51.51-115.35,115.37s51.5,115.37,115.35,115.37,115.35-51.51,115.35-115.37-51.5-115.37-115.35-115.37ZM225.05,300.01c-41.26,0-74.99-33.64-74.99-75.01s33.63-75.01,74.99-75.01,74.99,33.64,74.99,75.01-33.73,75.01-74.99,75.01h0ZM372.02,104.91c0,14.96-12.05,26.91-26.9,26.91s-26.9-12.05-26.9-26.91,12.05-26.91,26.9-26.91,26.9,12.05,26.9,26.91ZM448.42,132.22c-1.71-36.05-9.94-67.98-36.34-94.29C385.78,11.62,353.85,3.39,317.81,1.58c-37.14-2.11-148.48-2.11-185.62,0-35.94,1.71-67.86,9.94-94.27,36.25C11.52,64.14,3.39,96.07,1.58,132.12c-2.11,37.15-2.11,148.51,0,185.66,1.71,36.05,9.94,67.98,36.34,94.29,26.4,26.31,58.23,34.54,94.27,36.35,37.14,2.11,148.48,2.11,185.62,0,36.04-1.71,67.96-9.94,94.27-36.35,26.3-26.31,34.53-58.24,36.34-94.29,2.11-37.15,2.11-148.41,0-185.56h0ZM400.43,357.65c-7.83,19.68-22.99,34.84-42.77,42.78-29.62,11.75-99.89,9.04-132.62,9.04s-103.1,2.61-132.62-9.04c-19.68-7.83-34.84-22.99-42.77-42.78-11.75-29.62-9.04-99.91-9.04-132.65s-2.61-103.12,9.04-132.65c7.83-19.68,22.99-34.84,42.77-42.78,29.62-11.75,99.89-9.04,132.62-9.04s103.1-2.61,132.62,9.04c19.68,7.83,34.84,22.99,42.77,42.78,11.75,29.62,9.04,99.91,9.04,132.65s2.71,103.12-9.04,132.65Z"/>
</svg>